<?xml version="1.0" encoding="UTF-8" standalone="no"?>
<svg
   viewBox="0 0 24 24"
   width="24"
   height="24"
   version="1.1"
   id="svg6"
   sodipodi:docname="amazon-builder-remote.svg"
   inkscape:version="1.4.3 (0d15f75, 2025-12-25)"
   xmlns:inkscape="http://www.inkscape.org/namespaces/inkscape"
   xmlns:sodipodi="http://sodipodi.sourceforge.net/DTD/sodipodi-0.dtd"
   xmlns="http://www.w3.org/2000/svg"
   xmlns:svg="http://www.w3.org/2000/svg">
  <defs
     id="defs6" />
  <sodipodi:namedview
     id="namedview6"
     pagecolor="#ffffff"
     bordercolor="#000000"
     borderopacity="0.25"
     inkscape:showpageshadow="2"
     inkscape:pageopacity="0.0"
     inkscape:pagecheckerboard="0"
     inkscape:deskcolor="#d1d1d1"
     inkscape:zoom="36.666667"
     inkscape:cx="12"
     inkscape:cy="12.013636"
     inkscape:window-width="1843"
     inkscape:window-height="1186"
     inkscape:window-x="0"
     inkscape:window-y="30"
     inkscape:window-maximized="0"
     inkscape:current-layer="svg6" />
  <!-- Helmet outer dome (rounded top, flat bottom) -->
  <!-- Front peak / visor sticking out left -->
  <!-- Brim / base band -->
  <!-- Centre ridge on dome -->
  <!-- Amazon smile -->
  <g
     id="g2"
     transform="matrix(0.83482546,0,0,0.82849648,2.0028467,2.0589045)">
    <g
       id="g1"
       transform="matrix(1.1661444,0,0,1.3095242,-0.92930285,-4.7778597)">
      <path
         d="M 3.5,14 C 3.5,7.5 8,4 12,4 c 4,0 8.5,3.5 8.5,10 z"
         fill="#ffb300"
         stroke="#e65100"
         stroke-width="0.7"
         stroke-linejoin="round"
         id="path1" />
      <path
         d="m 3.1454545,14.081818 -2,0.5 v 1.5 l 3.5,-0.5 z"
         fill="#ffb300"
         stroke="#e65100"
         stroke-width="0.7"
         stroke-linejoin="round"
         id="path2"
         style="fill:#e65100" />
      <path
         d="M 3.3197191,13.91981 H 20.625736 l 0.509,1.996744 H 2.8107186 Z"
         fill="#e65100"
         stroke="#e65100"
         stroke-width="0.403256"
         stroke-linejoin="round"
         id="path3" />
      <path
         d="M 12,4.5 V 14"
         fill="none"
         stroke="#e65100"
         stroke-width="0.8"
         stroke-linecap="round"
         opacity="0.5"
         id="path4"
         style="opacity:1;fill:#e65100" />
      <path
         d="m 5.5193456,19.510001 q 6.2351994,3.459535 12.4703994,0"
         fill="none"
         stroke="#ff9900"
         stroke-width="1.5"
         stroke-linecap="round"
         id="path5" />
      <path
         d="m 17.263636,18.145455 1.7,1.4 -1.4,1.4"
         fill="none"
         stroke="#ff9900"
         stroke-width="1.5"
         stroke-linecap="round"
         stroke-linejoin="round"
         id="path6" />
    </g>
    <g
       id="g3"
       transform="matrix(1.3333333,0,0,1.5528256,-12.360605,-19.479608)">
      <rect
         x="14.5"
         y="14.5"
         width="9"
         height="6.5"
         rx="1"
         fill="#3b82f6"
         id="rect1" />
      <rect
         x="15.2"
         y="15.2"
         width="7.5999999"
         height="5"
         rx="0.40000001"
         fill="#0f172a"
         id="rect2" />
      <path
         fill="#3b82f6"
         d="m 16,16.8 1.4,1.1 -1.4,1.1 0.5,0.5 1.8,-1.6 -1.8,-1.6 z"
         id="path2-8" />
      <rect
         x="18.5"
         y="18.200001"
         width="2.5"
         height="0.89999998"
         rx="0.2"
         fill="#3b82f6"
         id="rect3" />
    </g>
  </g>
</svg>
