<?xml version="1.0" encoding="UTF-8" standalone="no"?>
<svg
   viewBox="0 0 24 24"
   version="1.1"
   id="svg3"
   sodipodi:docname="codex-wsl.svg"
   inkscape:version="1.4 (86a8ad7, 2024-10-11)"
   xmlns:inkscape="http://www.inkscape.org/namespaces/inkscape"
   xmlns:sodipodi="http://sodipodi.sourceforge.net/DTD/sodipodi-0.dtd"
   xmlns="http://www.w3.org/2000/svg"
   xmlns:svg="http://www.w3.org/2000/svg">
  <defs
     id="defs3">
    <linearGradient
       id="Unbenannter_Verlauf_13"
       data-name="Unbenannter Verlauf 13"
       x1="20.89856"
       y1="28.70122"
       x2="160.51788"
       y2="270.52899"
       gradientUnits="userSpaceOnUse">
      <stop
         offset="0"
         stop-color="#0078d3"
         id="stop1" />
      <stop
         offset="1"
         stop-color="#0c5aa5"
         id="stop2" />
    </linearGradient>
    <radialGradient
       id="Unbenannter_Verlauf_25"
       data-name="Unbenannter Verlauf 25"
       cx="96.613213"
       cy="162.92136"
       fx="96.613213"
       fy="162.92136"
       r="40.583229"
       gradientTransform="matrix(0,-1,0.76688,0,-28.32862,259.53456)"
       gradientUnits="userSpaceOnUse">
      <stop
         offset="0"
         stop-color="#c86508"
         id="stop3" />
      <stop
         offset="1"
         stop-color="#bf6009"
         id="stop4" />
    </radialGradient>
    <filter
       id="drop-shadow-1"
       x="40.5"
       y="102"
       width="112"
       height="113"
       filterUnits="userSpaceOnUse">
      <feOffset
         dx="0"
         dy="7"
         id="feOffset4" />
      <feGaussianBlur
         result="blur"
         stdDeviation="8"
         id="feGaussianBlur4" />
      <feFlood
         flood-color="#000"
         flood-opacity=".4"
         id="feFlood4" />
      <feComposite
         in2="blur"
         operator="in"
         id="feComposite4" />
      <feComposite
         in="SourceGraphic"
         id="feComposite5" />
    </filter>
    <radialGradient
       id="Unbenannter_Verlauf_20"
       data-name="Unbenannter Verlauf 20"
       cx="96.5"
       cy="154.76035"
       fx="96.5"
       fy="154.76035"
       r="40.36821"
       gradientTransform="matrix(0,-1,0.64075,0,-2.6625,251.26035)"
       gradientUnits="userSpaceOnUse">
      <stop
         offset="0"
         stop-color="#ef8506"
         id="stop5" />
      <stop
         offset="1"
         stop-color="#ed7e03"
         id="stop6" />
    </radialGradient>
    <radialGradient
       id="Unbenannter_Verlauf_37"
       data-name="Unbenannter Verlauf 37"
       cx="96.951118"
       cy="129.93069"
       fx="96.951118"
       fy="129.93069"
       r="103.07409"
       gradientTransform="matrix(0,-1,0.83279,0,-11.25307,226.88182)"
       gradientUnits="userSpaceOnUse">
      <stop
         offset=".0784"
         stop-color="#ffc700"
         id="stop7" />
      <stop
         offset="1"
         stop-color="#ffc700"
         id="stop8" />
    </radialGradient>
  </defs>
  <sodipodi:namedview
     id="namedview3"
     pagecolor="#ffffff"
     bordercolor="#000000"
     borderopacity="0.25"
     inkscape:showpageshadow="2"
     inkscape:pageopacity="0.0"
     inkscape:pagecheckerboard="0"
     inkscape:deskcolor="#d1d1d1"
     inkscape:zoom="36.666667"
     inkscape:cx="12.013636"
     inkscape:cy="12"
     inkscape:window-width="1859"
     inkscape:window-height="1186"
     inkscape:window-x="923"
     inkscape:window-y="535"
     inkscape:window-maximized="0"
     inkscape:current-layer="svg3" />
  <!-- Codex icon scaled to ~70% in top-left -->
  <g
     transform="matrix(0.99998885,0,0,0.83328645,-2.8648623e-4,2.0010403)"
     id="g1">
    <path
       clip-rule="evenodd"
       d="m 8.086,0.457 a 6.105,6.105 0 0 1 3.046,-0.415 c 1.333,0.153 2.521,0.72 3.564,1.7 a 0.117,0.117 0 0 0 0.107,0.029 c 1.408,-0.346 2.762,-0.224 4.061,0.366 l 0.063,0.03 0.154,0.076 c 1.357,0.703 2.33,1.77 2.918,3.198 0.278,0.679 0.418,1.388 0.421,2.126 a 5.655,5.655 0 0 1 -0.18,1.631 0.167,0.167 0 0 0 0.04,0.155 5.982,5.982 0 0 1 1.578,2.891 c 0.385,1.901 -0.01,3.615 -1.183,5.14 l -0.182,0.22 a 6.063,6.063 0 0 1 -2.934,1.851 0.162,0.162 0 0 0 -0.108,0.102 c -0.255,0.736 -0.511,1.364 -0.987,1.992 -1.199,1.582 -2.962,2.462 -4.948,2.451 -1.583,-0.008 -2.986,-0.587 -4.21,-1.736 a 0.145,0.145 0 0 0 -0.14,-0.032 c -0.518,0.167 -1.04,0.191 -1.604,0.185 A 5.924,5.924 0 0 1 4.967,21.795 6.058,6.058 0 0 1 2.821,20.014 C 2.618,19.745 2.417,19.492 2.27,19.193 A 7.74,7.74 0 0 1 1.775,17.91 6.11,6.11 0 0 1 1.758,14.846 0.166,0.166 0 0 0 1.766,14.772 0.115,0.115 0 0 0 1.729,14.708 5.958,5.958 0 0 1 0.349,12.506 5.196,5.196 0 0 1 0.016,10.917 6.915,6.915 0 0 1 0.204,8.785 C 0.654,7.301 1.513,6.137 2.781,5.292 3.063,5.104 3.331,4.958 3.583,4.854 3.869,4.734 4.156,4.634 4.444,4.55 A 0.129,0.129 0 0 0 4.531,4.463 6.016,6.016 0 0 1 5.635,2.31 C 6.315,1.464 7.132,0.846 8.086,0.457 Z M 7.282,8.307 A 0.84833558,0.84833558 0 0 0 5.809,9.149 l 1.694,2.965 -1.688,2.848 a 0.849,0.849 0 0 0 1.46,0.864 l 1.94,-3.272 A 0.849,0.849 0 0 0 9.222,11.7 Z m 5.446,6.24 a 0.849,0.849 0 0 0 0,1.695 h 4.848 a 0.849,0.849 0 0 0 0,-1.696 h -4.848 z"
       fill="currentColor"
       fill-rule="evenodd"
       id="path1" />
  </g>
  <!-- Terminal badge bottom-right -->
  <g
     id="Ebene_1-2"
     data-name="Ebene 1"
     transform="matrix(0.05181347,0,0,0.05181347,14,10.735752)">
    <path
       class="cls-4"
       d="M 96.49981,0 H 96.5 C 149.7598,0 193,43.2402 193,96.5 V 246 c 0,5.51915 -4.48085,10 -10,10 H 10 C 4.48085,256 0,251.51915 0,246 V 96.49981 C 0,43.24011 43.24011,0 96.49981,0 Z"
       id="path8"
       style="fill:url(#Unbenannter_Verlauf_13)" />
    <circle
       class="cls-2"
       cx="56.5"
       cy="87.110001"
       r="32"
       id="circle8"
       style="fill:#ffffff" />
    <circle
       class="cls-2"
       cx="136.5"
       cy="87.110001"
       r="32"
       id="circle9"
       style="fill:#ffffff" />
    <path
       class="cls-2"
       d="m 88.5,87.11 h -64 v 80.77687 c 0,35.23677 28.56505,63.80182 63.80182,63.80182 H 88.5 Z"
       id="path9"
       style="fill:#ffffff" />
    <path
       class="cls-2"
       d="m 104.5,87.11 h 64 v 80.77687 c 0,35.23677 -28.56505,63.80182 -63.80182,63.80182 H 104.5 Z"
       id="path10"
       style="fill:#ffffff" />
    <rect
       class="cls-2"
       x="75.962257"
       y="178.00943"
       width="40.754719"
       height="48.452831"
       id="rect10"
       style="fill:#ffffff" />
    <circle
       cx="56.5"
       cy="96.109993"
       r="16.301901"
       transform="rotate(-80.78253,56.500002,96.109993)"
       id="circle10" />
    <circle
       cx="136.5"
       cy="96.110001"
       r="16.301889"
       id="circle11" />
    <circle
       class="cls-3"
       cx="96.5"
       cy="151.91"
       r="32"
       id="circle12"
       style="fill:url(#Unbenannter_Verlauf_25);filter:url(#drop-shadow-1)" />
    <path
       class="cls-1"
       d="m 64.5,149.48114 c 0,-14.94339 13.16492,-29.21021 32,-29.37115 19.08282,-0.16306 32,16.88058 32,29.37115 0,0 -11.54718,7.62885 -32,7.62885 -20.45282,0 -32,-7.62885 -32,-7.62885 z"
       id="path12"
       style="fill:url(#Unbenannter_Verlauf_20)" />
    <path
       class="cls-5"
       d="m 24.5,160.25473 c 0,19.28659 -2.59474,71.85527 71.95556,71.85527 74.5503,0 72.04444,-50.83755 72.04444,-72.35057 0,0 -14.9004,53.93208 -72.04444,53.93208 C 39.31152,213.69151 24.5,160.25473 24.5,160.25473 Z"
       id="path13"
       style="fill:url(#Unbenannter_Verlauf_37)" />
  </g>
</svg>
