<?xml version="1.0" encoding="UTF-8" standalone="no"?>
<svg
   width="24px"
   height="24px"
   viewBox="0 0 24 24"
   version="1.1"
   id="svg1"
   sodipodi:docname="ElastiCache.svg"
   inkscape:version="1.4.3 (0d15f75, 2025-12-25)"
   xmlns:inkscape="http://www.inkscape.org/namespaces/inkscape"
   xmlns:sodipodi="http://sodipodi.sourceforge.net/DTD/sodipodi-0.dtd"
   xmlns="http://www.w3.org/2000/svg"
   xmlns:svg="http://www.w3.org/2000/svg">
  <defs
     id="defs1" />
  <sodipodi:namedview
     id="namedview1"
     pagecolor="#ffffff"
     bordercolor="#000000"
     borderopacity="0.25"
     inkscape:showpageshadow="2"
     inkscape:pageopacity="0.0"
     inkscape:pagecheckerboard="0"
     inkscape:deskcolor="#d1d1d1"
     inkscape:zoom="36.666667"
     inkscape:cx="12"
     inkscape:cy="12"
     inkscape:window-width="2049"
     inkscape:window-height="1243"
     inkscape:window-x="335"
     inkscape:window-y="53"
     inkscape:window-maximized="0"
     inkscape:current-layer="svg1" />
  <title
     id="title1">Icon-Architecture/16/Arch_Amazon-ElastiCache_16</title>
  <g
     id="Icon-Architecture/16/Arch_Amazon-ElastiCache_16"
     stroke="none"
     stroke-width="1"
     fill="none"
     fill-rule="evenodd"
     transform="matrix(0.83333333,0,0,0.83333333,2,2)">
    <g
       id="Icon-Architecture-BG/16/Database"
       fill="#c925d1">
      <rect
         id="Rectangle"
         x="0"
         y="0"
         width="24"
         height="24" />
    </g>
    <path
       d="m 10,13 h 5 v -2 h -5 z m 0,3 h 5 v -2 h -5 z m 0,3 h 5 v -2 h -5 z m 6,-8.5 v 9 c 0,0.277 -0.224,0.5 -0.5,0.5 h -6 C 9.224,20 9,19.777 9,19.5 v -9 C 9,10.224 9.224,10 9.5,10 h 6 c 0.276,0 0.5,0.224 0.5,0.5 z m 1,1.5 h 1 V 6.5 C 18,6.224 17.776,6 17.5,6 h -2 C 15.224,6 15,6.224 15,6.5 V 9 h 1 V 7 h 1 z M 14,9 V 6.5 C 14,6.224 13.776,6 13.5,6 h -2 C 11.224,6 11,6.224 11,6.5 V 9 h 1 V 7 h 1 V 9 Z M 9,9 h 1 V 6.5 C 10,6.224 9.776,6 9.5,6 h -2 C 7.224,6 7,6.224 7,6.5 V 12 H 8 V 7 H 9 Z M 20,4.5 v 10 C 20,14.777 19.776,15 19.5,15 H 17 v -1 h 2 V 5 H 6 v 9 h 2 v 1 H 5.5 C 5.224,15 5,14.777 5,14.5 V 4.5 C 5,4.224 5.224,4 5.5,4 h 14 C 19.776,4 20,4.224 20,4.5 Z"
       id="Amazon-ElastiCache_Icon_16_Squid"
       fill="#ffffff" />
  </g>
</svg>
