<?xml version="1.0" encoding="UTF-8" standalone="no"?>
<!-- Uploaded to: SVG Repo, www.svgrepo.com, Generator: SVG Repo Mixer Tools -->

<svg
   width="800px"
   height="800px"
   viewBox="0 0 24 24"
   fill="none"
   version="1.1"
   id="svg3"
   sodipodi:docname="file-gif.svg"
   inkscape:version="1.4.4 (dcaf3e7, 2026-05-05)"
   xmlns:inkscape="http://www.inkscape.org/namespaces/inkscape"
   xmlns:sodipodi="http://sodipodi.sourceforge.net/DTD/sodipodi-0.dtd"
   xmlns="http://www.w3.org/2000/svg"
   xmlns:svg="http://www.w3.org/2000/svg">
  <defs
     id="defs3" />
  <sodipodi:namedview
     id="namedview3"
     pagecolor="#ffffff"
     bordercolor="#000000"
     borderopacity="0.25"
     inkscape:showpageshadow="2"
     inkscape:pageopacity="0.0"
     inkscape:pagecheckerboard="0"
     inkscape:deskcolor="#d1d1d1"
     inkscape:zoom="1.03"
     inkscape:cx="400"
     inkscape:cy="399.51456"
     inkscape:window-width="1659"
     inkscape:window-height="1238"
     inkscape:window-x="0"
     inkscape:window-y="30"
     inkscape:window-maximized="0"
     inkscape:current-layer="svg3" />
  <path
     d="M7 3C4.23858 3 2 5.23858 2 8V16C2 18.7614 4.23858 21 7 21H17C19.7614 21 22 18.7614 22 16V8C22 5.23858 19.7614 3 17 3H7Z"
     fill="#4296FF"
     id="path1"
     style="fill:#ff5555" />
  <path
     d="M19.8918 16.8014L17.8945 14.2809C16.9457 13.0835 15.2487 12.7904 13.9532 13.6001L13.1168 14.1228C12.6581 14.4095 12.0547 14.2795 11.7547 13.8295L10.3177 11.6741C9.20539 10.0056 6.80071 9.8771 5.51693 11.4176L4 13.238V16C4 17.6569 5.34315 19 7 19H17C18.3793 19 19.5412 18.0691 19.8918 16.8014Z"
     fill="#152C70"
     id="path2"
     style="fill:#550000" />
  <path
     d="M16 11C17.1046 11 18 10.1046 18 9C18 7.89543 17.1046 7 16 7C14.8954 7 14 7.89543 14 9C14 10.1046 14.8954 11 16 11Z"
     fill="#152C70"
     id="path3"
     style="fill:#550000" />
</svg>
