<?xml version="1.0" encoding="utf-8"?>
<svg viewBox="0 0 16 16" width="16" height="16" xmlns="http://www.w3.org/2000/svg">
  <!-- Page body -->
  <path d="M2 1 L10 1 L14 5 L14 15 L2 15 Z"
        fill="#f5f5f5" stroke="#3B82F6" stroke-width="1.4" stroke-linejoin="round"/>
  <!-- Folded corner -->
  <path d="M10 1 L10 5 L14 5"
        fill="none" stroke="#3B82F6" stroke-width="1.4" stroke-linejoin="round"/>
  <!-- Bitmap color bar at bottom -->
  <rect x="2" y="13" width="12" height="2" fill="#EC4899"/>
  <!-- Pixel grid: small filled squares representing bitmap -->
  <rect x="3.5" y="6.5" width="0.8" height="0.8" fill="#F3D55B"/>
  <rect x="4.5" y="6.5" width="0.8" height="0.8" fill="#EC4899"/>
  <rect x="5.5" y="6.5" width="0.8" height="0.8" fill="#06B6D4"/>
  <rect x="6.5" y="6.5" width="0.8" height="0.8" fill="#88C057"/>
  <rect x="3.5" y="7.5" width="0.8" height="0.8" fill="#06B6D4"/>
  <rect x="4.5" y="7.5" width="0.8" height="0.8" fill="#88C057"/>
  <rect x="5.5" y="7.5" width="0.8" height="0.8" fill="#F3D55B"/>
  <rect x="6.5" y="7.5" width="0.8" height="0.8" fill="#EC4899"/>
  <rect x="3.5" y="8.5" width="0.8" height="0.8" fill="#88C057"/>
  <rect x="4.5" y="8.5" width="0.8" height="0.8" fill="#06B6D4"/>
  <rect x="5.5" y="8.5" width="0.8" height="0.8" fill="#EC4899"/>
  <rect x="6.5" y="8.5" width="0.8" height="0.8" fill="#F3D55B"/>
</svg>
