<?xml version="1.0" encoding="UTF-8" standalone="no"?>
<svg
   width="32"
   height="32"
   version="1.1"
   id="svg2"
   sodipodi:docname="kiro.svg"
   inkscape:version="1.4.3 (0d15f75, 2025-12-25)"
   xmlns:inkscape="http://www.inkscape.org/namespaces/inkscape"
   xmlns:sodipodi="http://sodipodi.sourceforge.net/DTD/sodipodi-0.dtd"
   xmlns="http://www.w3.org/2000/svg"
   xmlns:svg="http://www.w3.org/2000/svg">
  <defs
     id="defs2" />
  <sodipodi:namedview
     id="namedview2"
     pagecolor="#ffffff"
     bordercolor="#000000"
     borderopacity="0.25"
     inkscape:showpageshadow="2"
     inkscape:pageopacity="0.0"
     inkscape:pagecheckerboard="0"
     inkscape:deskcolor="#d1d1d1"
     inkscape:zoom="27.5"
     inkscape:cx="16.018182"
     inkscape:cy="16.018182"
     inkscape:window-width="1024"
     inkscape:window-height="1186"
     inkscape:window-x="211"
     inkscape:window-y="51"
     inkscape:window-maximized="0"
     inkscape:current-layer="svg2" />
  <path
     style="fill:#8845f4;fill-opacity:1;fill-rule:nonzero;stroke:none;stroke-width:0.918694"
     d="M 6.5940952,2.5126588 A 7.0061012,5.9129755 0 0 0 0.74201068,5.7696061 6.996101,5.9045357 0 0 0 0.01600019,8.1268628 C 0.00400002,8.3041002 -3.6099882e-8,10.87995 0.00400002,16.194538 c 0.00400006,7.341846 0.00800012,7.819543 0.03100045,7.997624 0.11300163,0.784909 0.32400468,1.394268 0.70701021,2.044138 a 6.9180999,5.8387046 0 0 0 3.17204582,2.656872 c 0.7500108,0.313963 1.5080218,0.497953 2.3980346,0.584039 0.2270033,0.02279 0.7700111,0.02279 9.6881399,0.02279 8.945129,0 9.457137,0 9.68814,-0.02279 0.917013,-0.08946 1.660024,-0.270076 2.437035,-0.596699 a 6.9180999,5.8387046 0 0 0 3.148046,-2.677128 c 0.372005,-0.63299 0.590008,-1.272733 0.69201,-2.023881 0.027,-0.191586 0.027,-0.649871 0.027,-8.157138 0,-8.4196184 0.004,-8.0432 -0.07,-8.4651937 A 6.993101,5.9020037 0 0 0 28.898417,3.5077199 6.4270928,5.4243068 0 0 0 28.141406,3.1321455 7.0601019,5.9585508 0 0 0 25.367366,2.5126588 c -0.328004,-0.01688 -18.437266,-0.01688 -18.7732708,0 z M 17.383251,7.0752545 a 7.5561091,6.3771686 0 0 1 6.008087,3.2113725 c 0.148002,0.216904 0.406006,0.671813 0.520007,0.915726 0.394006,0.843987 0.632009,1.820481 0.769011,3.164952 0.035,0.320716 0.05,1.658436 0.023,2.031478 -0.125002,1.829765 -0.625009,3.530399 -1.515022,5.129755 a 9.7701411,8.2457566 0 0 1 -0.801012,1.21281 c -0.930013,1.101404 -2.320033,1.968179 -3.48005,2.169048 -0.895013,0.155293 -1.602023,-0.0844 -2.04803,-0.697978 A 3.4200494,2.8864368 0 0 1 16.60924,23.766793 c -0.035,-0.08187 -0.062,-0.108875 -0.086,-0.07596 -0.003,0.0068 -0.09,0.0633 -0.191003,0.12913 -0.950014,0.609359 -2.020029,0.991685 -3.059044,1.091276 -0.273004,0.02532 -0.859013,0.01941 -1.085016,-0.0135 -0.71501,-0.102123 -1.286019,-0.372199 -1.649024,-0.784908 a 2.563037,2.1631396 0 0 1 -0.328005,-0.5334 c -0.117001,-0.303836 -0.156002,-0.686162 -0.117001,-1.035573 0.054,-0.464193 0.226003,-0.999281 0.484007,-1.490482 a 0.48000693,0.40511394 0 0 0 0.043,-0.09875 2.1100305,1.7808134 0 0 0 -0.137002,0.04642 c -0.363006,0.135038 -0.8980136,0.257416 -1.3080195,0.29624 -0.8440122,0.08271 -1.4260206,-0.118158 -1.7150248,-0.589947 -0.1060015,-0.17133 -0.1490022,-0.329156 -0.1600023,-0.570536 -0.008,-0.220281 0.008,-0.362914 0.066001,-0.553656 0.059001,-0.194117 0.1210018,-0.309743 0.4030059,-0.751148 0.3820055,-0.607671 0.4920071,-0.798412 0.6360091,-1.137695 0.3280048,-0.758745 0.480007,-1.454191 0.68801,-3.168329 0.1480021,-1.239817 0.2540036,-1.806133 0.4330062,-2.334469 0.028,-0.07596 0.078001,-0.233784 0.1140017,-0.349411 0.7960117,-2.594417 3.1130447,-4.3743863 6.1480887,-4.7271731 0.129002,-0.013504 0.309004,-0.033759 0.399006,-0.039667 0.238003,-0.013504 0.960014,-0.01688 1.195017,-4e-7 z m 0,0"
     id="path1" />
  <path
     style="stroke:none;fill-rule:nonzero;fill:#8845f4;fill-opacity:1"
     d="M16.754 11.336a.815.815 0 0 0-.375.219c-.176.18-.293.441-.356.804-.039.235-.058.602-.039.868.028.406.082.64.204.894.128.262.304.426.546.496.106.031.383.031.5 0 .422-.113.703-.531.801-1.191a4.822 4.822 0 0 0-.012-.95c-.062-.378-.183-.675-.359-.863a.808.808 0 0 0-.648-.293.804.804 0 0 0-.262.016ZM20.375 11.328a1.01 1.01 0 0 0-.363.188c-.164.144-.293.402-.364.718-.05.23-.07.426-.07.743 0 .32.02.511.07.742.11.496.352.808.688.898.121.031.379.031.5 0 .402-.105.68-.5.781-1.11.035-.198.047-.648.024-.87-.063-.63-.293-1.059-.649-1.23a1.513 1.513 0 0 0-.219-.079 1.362 1.362 0 0 0-.398 0Zm0 0"
     id="path2" />
</svg>
