<?xml version="1.0" encoding="UTF-8" standalone="no"?>
<svg
   viewBox="0 0 32 32"
   version="1.1"
   id="svg4"
   sodipodi:docname="kiro-remote.svg"
   inkscape:version="1.4.3 (0d15f75, 2025-12-25)"
   xmlns:inkscape="http://www.inkscape.org/namespaces/inkscape"
   xmlns:sodipodi="http://sodipodi.sourceforge.net/DTD/sodipodi-0.dtd"
   xmlns="http://www.w3.org/2000/svg"
   xmlns:svg="http://www.w3.org/2000/svg">
  <defs
     id="defs4" />
  <sodipodi:namedview
     id="namedview4"
     pagecolor="#ffffff"
     bordercolor="#000000"
     borderopacity="0.25"
     inkscape:showpageshadow="2"
     inkscape:pageopacity="0.0"
     inkscape:pagecheckerboard="0"
     inkscape:deskcolor="#d1d1d1"
     inkscape:zoom="27.5"
     inkscape:cx="16"
     inkscape:cy="15.981818"
     inkscape:window-width="1803"
     inkscape:window-height="1256"
     inkscape:window-x="430"
     inkscape:window-y="50"
     inkscape:window-maximized="0"
     inkscape:current-layer="svg4" />
  <!-- Kiro icon scaled to ~70% in top-left -->
  <g
     transform="matrix(1.000327,0,0,0.84398737,-7.5081772e-4,2.499156)"
     id="g2">
    <path
       style="fill:#8845f4"
       d="M 6.594,0.016 A 7.006,7.006 0 0 0 0.742,3.875 6.996,6.996 0 0 0 0.016,6.668 C 0.004,6.878 0,9.93 0.004,16.227 c 0.004,8.699 0.008,9.265 0.031,9.476 0.113,0.93 0.324,1.652 0.707,2.422 a 6.918,6.918 0 0 0 3.172,3.148 c 0.75,0.372 1.508,0.59 2.398,0.692 0.227,0.027 0.77,0.027 9.688,0.027 8.945,0 9.457,0 9.688,-0.027 0.917,-0.106 1.66,-0.32 2.437,-0.707 a 6.918,6.918 0 0 0 3.148,-3.172 c 0.372,-0.75 0.59,-1.508 0.692,-2.398 0.027,-0.227 0.027,-0.77 0.027,-9.665 0,-9.976 0.004,-9.53 -0.07,-10.03 A 6.993,6.993 0 0 0 28.898,1.195 6.427,6.427 0 0 0 28.141,0.75 7.06,7.06 0 0 0 25.367,0.016 c -0.328,-0.02 -18.437,-0.02 -18.773,0 z m 10.789,5.406 a 7.556,7.556 0 0 1 6.008,3.805 c 0.148,0.257 0.406,0.796 0.52,1.085 0.394,1 0.632,2.157 0.769,3.75 0.035,0.38 0.05,1.965 0.023,2.407 -0.125,2.168 -0.625,4.183 -1.515,6.078 a 9.77,9.77 0 0 1 -0.801,1.437 c -0.93,1.305 -2.32,2.332 -3.48,2.57 -0.895,0.184 -1.602,-0.1 -2.048,-0.827 a 3.42,3.42 0 0 1 -0.25,-0.528 c -0.035,-0.097 -0.062,-0.129 -0.086,-0.09 -0.003,0.008 -0.09,0.075 -0.191,0.153 -0.95,0.722 -2.02,1.175 -3.059,1.293 -0.273,0.03 -0.859,0.023 -1.085,-0.016 -0.715,-0.121 -1.286,-0.441 -1.649,-0.93 a 2.563,2.563 0 0 1 -0.328,-0.632 c -0.117,-0.36 -0.156,-0.813 -0.117,-1.227 0.054,-0.55 0.226,-1.184 0.484,-1.766 a 0.48,0.48 0 0 0 0.043,-0.117 2.11,2.11 0 0 0 -0.137,0.055 c -0.363,0.16 -0.898,0.305 -1.308,0.351 -0.844,0.098 -1.426,-0.14 -1.715,-0.699 -0.106,-0.203 -0.149,-0.39 -0.16,-0.676 -0.008,-0.261 0.008,-0.43 0.066,-0.656 0.059,-0.23 0.121,-0.367 0.403,-0.89 0.382,-0.72 0.492,-0.946 0.636,-1.348 0.328,-0.899 0.48,-1.723 0.688,-3.754 0.148,-1.469 0.254,-2.14 0.433,-2.766 0.028,-0.09 0.078,-0.277 0.114,-0.414 0.796,-3.074 3.113,-5.183 6.148,-5.601 0.129,-0.016 0.309,-0.04 0.399,-0.047 0.238,-0.016 0.96,-0.02 1.195,0 z m 0,0"
       id="path1" />
    <path
       style="fill:#8845f4"
       d="m 16.754,11.336 a 0.815,0.815 0 0 0 -0.375,0.219 c -0.176,0.18 -0.293,0.441 -0.356,0.804 -0.039,0.235 -0.058,0.602 -0.039,0.868 0.028,0.406 0.082,0.64 0.204,0.894 0.128,0.262 0.304,0.426 0.546,0.496 0.106,0.031 0.383,0.031 0.5,0 0.422,-0.113 0.703,-0.531 0.801,-1.191 a 4.822,4.822 0 0 0 -0.012,-0.95 C 17.961,12.098 17.84,11.801 17.664,11.613 a 0.808,0.808 0 0 0 -0.648,-0.293 0.804,0.804 0 0 0 -0.262,0.016 z m 3.621,-0.008 a 1.01,1.01 0 0 0 -0.363,0.188 c -0.164,0.144 -0.293,0.402 -0.364,0.718 -0.05,0.23 -0.07,0.426 -0.07,0.743 0,0.32 0.02,0.511 0.07,0.742 0.11,0.496 0.352,0.808 0.688,0.898 0.121,0.031 0.379,0.031 0.5,0 0.402,-0.105 0.68,-0.5 0.781,-1.11 0.035,-0.198 0.047,-0.648 0.024,-0.87 -0.063,-0.63 -0.293,-1.059 -0.649,-1.23 a 1.513,1.513 0 0 0 -0.219,-0.079 1.362,1.362 0 0 0 -0.398,0 z m 0,0"
       id="path2" />
  </g>
  <!-- Terminal badge bottom-right -->
  <g
     id="g3"
     transform="matrix(1.7777778,0,0,2.0769231,-9.7777783,-11.615385)">
    <rect
       x="14.5"
       y="14.5"
       width="9"
       height="6.5"
       rx="1"
       fill="#3b82f6"
       id="rect1" />
    <rect
       x="15.2"
       y="15.2"
       width="7.5999999"
       height="5"
       rx="0.40000001"
       fill="#0f172a"
       id="rect2" />
    <path
       fill="#3b82f6"
       d="m 16,16.8 1.4,1.1 -1.4,1.1 0.5,0.5 1.8,-1.6 -1.8,-1.6 z"
       id="path2-0" />
    <rect
       x="18.5"
       y="18.200001"
       width="2.5"
       height="0.89999998"
       rx="0.2"
       fill="#3b82f6"
       id="rect3" />
  </g>
</svg>
