<?xml version="1.0" encoding="UTF-8" standalone="no"?>
<!-- Uploaded to: SVG Repo, www.svgrepo.com, Generator: SVG Repo Mixer Tools -->

<svg
   width="800px"
   height="800px"
   viewBox="0 0 16 16"
   version="1.1"
   id="svg2"
   sodipodi:docname="restart.svg"
   inkscape:version="1.4.3 (0d15f75, 2025-12-25)"
   xmlns:inkscape="http://www.inkscape.org/namespaces/inkscape"
   xmlns:sodipodi="http://sodipodi.sourceforge.net/DTD/sodipodi-0.dtd"
   xmlns="http://www.w3.org/2000/svg"
   xmlns:svg="http://www.w3.org/2000/svg">
  <defs
     id="defs2" />
  <sodipodi:namedview
     id="namedview2"
     pagecolor="#ffffff"
     bordercolor="#000000"
     borderopacity="0.25"
     inkscape:showpageshadow="2"
     inkscape:pageopacity="0.0"
     inkscape:pagecheckerboard="0"
     inkscape:deskcolor="#d1d1d1"
     inkscape:zoom="1.1"
     inkscape:cx="400.45455"
     inkscape:cy="400.45455"
     inkscape:window-width="1812"
     inkscape:window-height="1186"
     inkscape:window-x="0"
     inkscape:window-y="30"
     inkscape:window-maximized="0"
     inkscape:current-layer="svg2" />
  <path
     fill="#3B82F6"
     d="M2.6 5.6c0.9-2.1 3-3.6 5.4-3.6 3 0 5.4 2.2 5.9 5h2c-0.5-3.9-3.8-7-7.9-7-3 0-5.6 1.6-6.9 4.1l-1.1-1.1v4h4l-1.4-1.4z"
     id="path1"
     style="fill:#4CAF50" />
  <path
     fill="#3B82F6"
     d="M16 9h-4.1l1.5 1.4c-0.9 2.1-3 3.6-5.5 3.6-2.9 0-5.4-2.2-5.9-5h-2c0.5 3.9 3.9 7 7.9 7 3 0 5.6-1.7 7-4.1l1.1 1.1v-4z"
     id="path2"
     style="fill:#4CAF50" />
</svg>
