<?xml version="1.0" encoding="utf-8"?>
<svg viewBox="0 0 120 400" width="120" height="400" xmlns="http://www.w3.org/2000/svg">
  <!-- Form/document outline (top) -->
  <rect x="20" y="30" width="80" height="105" rx="5" fill="none" stroke="#3B82F6" stroke-width="2.5"/>

  <!-- Form lines (representing fields) -->
  <rect x="32" y="48" width="35" height="6" rx="2" fill="#3B82F6" opacity="0.4"/>
  <rect x="32" y="60" width="56" height="8" rx="2" fill="#3B82F6" opacity="0.8"/>

  <rect x="32" y="78" width="28" height="6" rx="2" fill="#3B82F6" opacity="0.4"/>
  <rect x="32" y="90" width="56" height="8" rx="2" fill="#3B82F6" opacity="0.8"/>

  <rect x="32" y="108" width="32" height="6" rx="2" fill="#3B82F6" opacity="0.4"/>
  <rect x="32" y="120" width="56" height="8" rx="2" fill="#3B82F6" opacity="0.8"/>

  <!-- Terminal prompt icon (centre) -->
  <rect x="18" y="170" width="85" height="65" rx="5" fill="#0F172A" stroke="#3B82F6" stroke-width="2"/>
  <path d="M30 192 L45 203 L30 214" fill="none" stroke="#4CAF50" stroke-width="3" stroke-linecap="round" stroke-linejoin="round"/>
  <rect x="50" y="209" width="35" height="4" rx="1.5" fill="#4CAF50" opacity="0.8"/>

  <!-- Pencil icon (bottom) -->
  <path d="M50 300 L65 250 L73 254 L58 304 Z" fill="#3B82F6" opacity="0.8"/>
  <path d="M65 250 L70 244 L78 248 L73 254 Z" fill="#EAB308"/>
  <line x1="50" y1="308" x2="58" y2="308" stroke="#3B82F6" stroke-width="2.5" stroke-linecap="round"/>
</svg>
